<svg xmlns="http://www.w3.org/2000/svg" viewBox="0 0 20 20"><defs><style>.cls-1{fill:#7b838b;}</style></defs><g id="레이어_2" data-name="레이어 2"><g id="레이어_1-2" data-name="레이어 1"><path class="cls-1" d="M17.37,2.79a.78.78,0,0,1-.25,1.11c-1,.62-1.88,1.17-2.71,1.68a3.33,3.33,0,0,0,2.26.87A3.27,3.27,0,0,0,20,3.23a3.34,3.34,0,0,0-6.67,0,3,3,0,0,0,.18,1c.9-.55,1.82-1.11,2.7-1.67A.86.86,0,0,1,17.37,2.79Z"/><path class="cls-1" d="M16.67,13.55a3.38,3.38,0,0,0-2.39,1l2.8,1.54a.79.79,0,0,1,.31,1.1.83.83,0,0,1-.72.41.86.86,0,0,1-.41-.1l-2.8-1.54a3.34,3.34,0,1,0,3.21-2.39Z"/><path class="cls-1" d="M14.41,5.58c.83-.51,1.73-1.06,2.71-1.68a.78.78,0,0,0,.25-1.11.86.86,0,0,0-1.16-.24c-.88.56-1.8,1.12-2.7,1.67C11.93,5.18,10.37,6.1,9,6.89a5.45,5.45,0,0,1,.75,1.46C11,7.64,12.52,6.74,14.41,5.58Z"/><path class="cls-1" d="M16.67,17.58a.83.83,0,0,0,.72-.41.79.79,0,0,0-.31-1.1l-2.8-1.54L9.61,12a5.53,5.53,0,0,1-.82,1.41l4.67,2.56,2.8,1.54A.86.86,0,0,0,16.67,17.58Z"/><circle class="cls-1" cx="4.33" cy="10" r="4.33"/></g></g></svg>