<svg xmlns="http://www.w3.org/2000/svg" viewBox="0 0 24 24"><g id="레이어_2" data-name="레이어 2"><g id="레이어_1-2" data-name="레이어 1"><path d="M12,24c-2.88,0-5.76,0-8.64,0A3,3,0,0,1,0,20.67Q0,12,0,3.27A3,3,0,0,1,3.3,0H20.7A3,3,0,0,1,24,3.26C24,9.11,24,15,24,20.79A3,3,0,0,1,20.77,24C17.84,24,14.92,24,12,24Zm.47-9c-.32-1.76-.63-3.51-1-5.27C10.78,5.8,11.33,5.66,6.86,7c-.08,0-.19,0-.24.07-.23.29-.44.6-.74,1,2.5.41,2.49.41,2.88,2.62.4,2.37.84,4.73,1.25,7a3,3,0,0,0,3.39-1.35,35,35,0,0,0,2.84-4.1,20.29,20.29,0,0,0,1.55-3.38c.38-1,.33-2-.86-2.52a2.34,2.34,0,0,0-2.84,1c1.48,1.41,1.72,1.82,1.13,3.18A21.2,21.2,0,0,1,12.47,15Z"/></g></g></svg>